<svg width="69" height="50" viewBox="0 0 69 50" fill="none" xmlns="http://www.w3.org/2000/svg">
<path d="M17.7302 22.7586C27.9777 23.9128 52.0602 34.3344 55.8607 49.0107H6.69238C19.1726 48.0941 29.8341 33.5084 17.7302 22.7586ZM21.7439 5.5589C25.7953 9.58724 27.7269 15.0527 27.5638 20.6765C37.9619 24.4898 53.5653 34.6739 56.8641 49.0107H68.9053C63.8004 24.5577 34.638 7.31281 21.7439 5.5589Z" fill="#3E459A" fill-opacity="0.6"/>
<path d="M11.5007 17.1997C21.7482 18.3539 45.8307 28.7755 49.6312 43.4518H0.462891C12.9431 42.5352 23.6046 27.9495 11.5007 17.1997ZM15.5144 0C19.5658 4.02834 21.4974 9.49376 21.3343 15.1176C31.7324 18.931 47.3358 29.115 50.6346 43.4518H62.6758C57.5709 18.9988 28.4085 1.75391 15.5144 0Z" fill="#2D3691"/>
</svg>
